#N canvas 678 199 487 518 12;
#X obj 11 -8 receive freq;
#X obj 15 467 throw~ sum_sines;
#X obj 12 18 * \$1;
#X obj 119 189 hsl 128 15 0.01 1 1 0 empty empty amp -2 -8 0 10 -203904
-1 -1 11794 1;
#X obj 117 129 hsl 128 15 0.001 20 1 0 empty empty vibrato_presence
-2 -8 0 10 -261234 -1 -1 12279 1;
#X obj 119 160 hsl 128 15 0.01 1 1 0 empty empty lfo_freq_amp -2 -8
0 10 -204800 -1 -1 5444 1;
#X obj 42 130 osc~;
#X obj 15 441 *~;
#N canvas 431 115 450 300 fat_osc~ 1;
#X obj 192 155 osc~;
#X obj 192 242 outlet~;
#X obj 215 125 osc~;
#X obj 274 125 osc~;
#X obj 80 127 osc~;
#X obj 139 127 osc~;
#X obj 192 25 inlet~;
#X obj 192 206 *~ 0.2;
#X obj 80 103 -~;
#X obj 80 70 *~ 0.04;
#X obj 139 71 *~ 0.03;
#X obj 215 69 *~ 0.02;
#X obj 274 69 *~ 0.05;
#X obj 139 103 -~;
#X obj 215 101 +~;
#X obj 274 101 +~;
#X connect 0 0 7 0;
#X connect 2 0 7 0;
#X connect 3 0 7 0;
#X connect 4 0 7 0;
#X connect 5 0 7 0;
#X connect 6 0 0 0;
#X connect 6 0 8 1;
#X connect 6 0 9 0;
#X connect 6 0 10 0;
#X connect 6 0 11 0;
#X connect 6 0 12 0;
#X connect 6 0 13 1;
#X connect 6 0 14 1;
#X connect 6 0 15 1;
#X connect 7 0 1 0;
#X connect 8 0 4 0;
#X connect 9 0 8 0;
#X connect 10 0 13 0;
#X connect 11 0 14 0;
#X connect 12 0 15 0;
#X connect 13 0 5 0;
#X connect 14 0 2 0;
#X connect 15 0 3 0;
#X restore 11 234 pd fat_osc~;
#X obj 79 316 *~ 0.5;
#X obj 79 291 osc~;
#X obj 79 340 +~ 0.5;
#X obj 157 380 *~;
#X obj 14 186 +~;
#X obj 42 82 * 0.1;
#X obj 41 160 *~;
#X obj 112 16 t b f;
#X obj 166 314 line~;
#X msg 163 285 \$1 1000;
#X obj 256 20 loadbang;
#X obj 328 44 random 100;
#X obj 112 -9 receive vibrato_freq_factor;
#X obj 326 -9 receive bang_rand;
#X obj 338 130 / 1000;
#X obj 282 80 / 5;
#X obj 282 165 / 100;
#X connect 0 0 2 0;
#X connect 2 0 13 0;
#X connect 2 0 14 0;
#X connect 3 0 18 0;
#X connect 4 0 15 1;
#X connect 5 0 10 0;
#X connect 6 0 15 0;
#X connect 7 0 1 0;
#X connect 8 0 7 0;
#X connect 9 0 11 0;
#X connect 10 0 9 0;
#X connect 11 0 12 0;
#X connect 12 0 7 1;
#X connect 13 0 8 0;
#X connect 14 0 6 0;
#X connect 15 0 13 1;
#X connect 16 0 14 0;
#X connect 16 1 14 1;
#X connect 17 0 12 1;
#X connect 18 0 17 0;
#X connect 19 0 20 0;
#X connect 20 0 23 0;
#X connect 20 0 24 0;
#X connect 20 0 25 0;
#X connect 21 0 16 0;
#X connect 22 0 20 0;
#X connect 23 0 5 0;
#X connect 24 0 4 0;
#X connect 25 0 3 0;
#X coords 0 -1 1 1 160 110 1 100 100;
