#N canvas 328 24 937 673 12;
#X obj 13 394 hradio 30 1 0 12 empty pitch_add pitch_root 0 -8 1 10
-262144 -1 -1 5;
#X obj 37 44 tgl 15 0 empty empty empty 17 7 0 10 -262144 -1 -1 1 1
;
#X floatatom 195 246 5 0 0 0 - - -;
#X obj 50 129 list-abs/list-wrandom;
#N canvas 0 22 450 278 (subpatch) 0;
#X array markov1 12 float 3;
#A 0 27 2 10 0 4 0 3 16 0 1 1 4;
#X coords 0 100 12 0 200 140 1 0 0;
#X restore 10 459 graph;
#X msg 195 271 \; markov1 resize \$1;
#X obj 785 288 list prepend 0;
#X obj 785 314 s markov1;
#X obj 52 167 bng 15 250 50 0 empty empty empty 17 7 0 10 -262144 -1
-1;
#X msg 483 102 0 7 31 1 4 45 2 84 11 17 3 19;
#X msg 483 128 2 0 8 0 0 0 1 3 0 0 0 1;
#X msg 483 154 5 3 0 1 4 1 7 62 2 8 0 6;
#X msg 483 180 1 1 0 0 0 0 0 4 4 0 0 0;
#X msg 483 206 1 0 2 0 0 7 0 1 0 7 0 1;
#X msg 483 232 27 2 10 0 4 0 3 16 0 1 1 4;
#X msg 483 258 3 0 0 0 0 0 0 13 0 0 0 0;
#X msg 483 284 166 0 8 1 2 4 0 0 7 6 0 2;
#X msg 483 310 3 2 8 0 1 3 0 4 0 3 2 0;
#X msg 483 336 4 2 28 0 1 4 2 1 0 0 0 1;
#X msg 483 362 0 0 0 5 0 0 0 1 0 0 0 0;
#X msg 483 388 26 0 0 0 3 0 1 2 1 0 0 0;
#X obj 37 66 metro 2000;
#X floatatom 70 165 5 0 0 0 - - -;
#X obj 195 38 sel 0 1 2 3 4 5 6 7 8 9 10 11;
#X obj 246 457 vsl 25 128 100 20000 1 0 empty empty tempo_ms 0 -9 0
10 -262130 -1 -1 6104 1;
#X obj 350 622 s tempo_ms;
#X obj 107 27 r tempo_ms;
#X floatatom 129 64 5 0 0 0 - - -;
#X floatatom 274 570 10 0 0 0 - - -;
#X obj 36 264 cnv 15 100 60 empty empty empty 20 12 0 14 -233017 -66577
0;
#X obj 313 497 tgl 35 0 markov_on empty Markov_On/Off 0 -5 0 10 -204786
-1 -1 0 1;
#X obj 415 412 loadbang;
#X msg 407 463 0;
#X msg 407 436 8000;
#X obj 242 339 hsl 128 15 0 12 0 0 tonic_degree empty Tonic_degree
-2 -8 0 10 -261682 -1 -1 0 1;
#N canvas 787 36 450 437 compute_pitch 0;
#X obj 99 74 int;
#X obj 99 100 + 36;
#X obj 164 172 +, f 7;
#X obj 167 66 t b f, f 6;
#X floatatom 178 195 5 0 0 0 - - -;
#X obj 162 227 outlet;
#X obj 98 37 inlet;
#X obj 167 36 inlet;
#X floatatom 43 137 5 0 0 0 - - -;
#X connect 0 0 1 0;
#X connect 0 0 8 0;
#X connect 1 0 2 0;
#X connect 2 0 4 0;
#X connect 2 0 5 0;
#X connect 3 0 2 0;
#X connect 3 1 2 1;
#X connect 6 0 0 0;
#X connect 7 0 3 0;
#X restore 543 515 pd compute_pitch;
#X obj 543 481 r tonic_degree;
#X obj 38 215 s pitch_add;
#X obj 195 12 r pitch_add;
#X obj 652 481 r pitch_add;
#X obj 543 610 outlet;
#X obj 486 579 print x1;
#X obj 242 369 hsl 128 15 100 10000 1 0 note_duration empty note_duration
-2 -8 0 10 -232576 -1 -1 5085 1;
#X obj 683 583 print x2;
#X obj 600 609 outlet;
#X obj 677 516 r note_duration;
#X obj 543 547 makenote 127 1000;
#X floatatom 710 547 5 0 0 0 - - -;
#X obj 473 494 bng 15 250 50 0 empty empty empty 17 7 0 10 -262144
-1 -1;
#X obj 89 1 r markov_on;
#X obj 93 97 spigot;
#X obj 11 14 loadbang;
#X obj 4 99 s trig_note;
#X obj 496 456 r trig_note;
#X connect 1 0 21 0;
#X connect 2 0 5 0;
#X connect 3 0 8 0;
#X connect 3 0 22 0;
#X connect 3 0 37 0;
#X connect 3 1 2 0;
#X connect 6 0 7 0;
#X connect 9 0 3 1;
#X connect 9 0 6 0;
#X connect 10 0 3 1;
#X connect 10 0 6 0;
#X connect 11 0 3 1;
#X connect 11 0 6 0;
#X connect 12 0 3 1;
#X connect 12 0 6 0;
#X connect 13 0 3 1;
#X connect 13 0 6 0;
#X connect 14 0 3 1;
#X connect 14 0 6 0;
#X connect 15 0 3 1;
#X connect 15 0 6 0;
#X connect 16 0 3 1;
#X connect 16 0 6 0;
#X connect 17 0 3 1;
#X connect 17 0 6 0;
#X connect 18 0 3 1;
#X connect 18 0 6 0;
#X connect 19 0 3 1;
#X connect 19 0 6 0;
#X connect 20 0 3 1;
#X connect 20 0 6 0;
#X connect 21 0 50 0;
#X connect 21 0 52 0;
#X connect 23 0 9 0;
#X connect 23 1 10 0;
#X connect 23 2 11 0;
#X connect 23 3 12 0;
#X connect 23 4 13 0;
#X connect 23 5 14 0;
#X connect 23 6 15 0;
#X connect 23 7 16 0;
#X connect 23 8 17 0;
#X connect 23 9 18 0;
#X connect 23 10 19 0;
#X connect 23 11 20 0;
#X connect 24 0 25 0;
#X connect 24 0 28 0;
#X connect 26 0 21 1;
#X connect 26 0 27 0;
#X connect 31 0 33 0;
#X connect 31 0 32 0;
#X connect 32 0 30 0;
#X connect 32 0 34 0;
#X connect 33 0 24 0;
#X connect 33 0 42 0;
#X connect 35 0 46 0;
#X connect 36 0 35 0;
#X connect 38 0 23 0;
#X connect 39 0 35 1;
#X connect 45 0 46 2;
#X connect 45 0 47 0;
#X connect 46 0 41 0;
#X connect 46 0 40 0;
#X connect 46 1 43 0;
#X connect 46 1 44 0;
#X connect 49 0 50 1;
#X connect 50 0 3 0;
#X connect 51 0 1 0;
#X connect 53 0 48 0;
#X connect 53 0 35 0;
#X coords 0 -1 1 1 400 300 1 0 320;
